<svg width="121" height="25" viewBox="0 0 121 25" fill="none" xmlns="http://www.w3.org/2000/svg">
<path d="M0.582031 19C0.464844 19 0.367188 18.9297 0.289062 18.7891C0.21875 18.6484 0.183594 18.5195 0.183594 18.4023C0.183594 18.2695 0.210938 18.168 0.265625 18.0977C0.320312 18.0273 0.421875 17.9844 0.570312 17.9688C1.03906 17.9297 1.43359 17.8555 1.75391 17.7461C2.07422 17.6289 2.23438 17.4531 2.23438 17.2188L2.24609 4.53906C2.24609 4.22656 2.16406 3.99219 2 3.83594C1.83594 3.67969 1.64844 3.58203 1.4375 3.54297C1.23438 3.49609 0.945312 3.44922 0.570312 3.40234C0.398438 3.38672 0.285156 3.35547 0.230469 3.30859C0.175781 3.25391 0.148438 3.14062 0.148438 2.96875C0.148438 2.85156 0.183594 2.72266 0.253906 2.58203C0.332031 2.44141 0.429688 2.37109 0.546875 2.37109L2.75 2.35938C3.32031 2.35938 4.04297 2.34375 4.91797 2.3125C5.04297 2.30469 5.34375 2.29297 5.82031 2.27734C6.29688 2.26172 6.80859 2.25781 7.35547 2.26562C9.27734 2.27344 10.7852 2.63281 11.8789 3.34375C12.9805 4.04688 13.5312 5.16406 13.5312 6.69531C13.5312 7.96094 13.1914 8.96094 12.5117 9.69531C11.832 10.4297 10.8594 10.9648 9.59375 11.3008C10.2891 11.3711 10.8516 11.5625 11.2812 11.875C11.7188 12.1797 12.0586 12.543 12.3008 12.9648C12.543 13.3867 12.8086 13.9531 13.0977 14.6641C13.293 15.1328 13.4531 15.5039 13.5781 15.7773C13.7031 16.0508 13.8516 16.3203 14.0234 16.5859C14.2656 17.0547 14.5312 17.3945 14.8203 17.6055C15.1172 17.8086 15.4297 17.9258 15.7578 17.957C15.9219 17.9727 16.0312 18.0156 16.0859 18.0859C16.1484 18.1562 16.1797 18.2812 16.1797 18.4609C16.1797 18.5703 16.1406 18.6875 16.0625 18.8125C15.9922 18.9375 15.8984 19 15.7812 19H12.3594C12.0312 19 11.7461 18.8633 11.5039 18.5898C11.2617 18.3164 11.0547 17.9727 10.8828 17.5586C10.7109 17.1445 10.5039 16.582 10.2617 15.8711C9.94922 14.9648 9.66797 14.2344 9.41797 13.6797C9.17578 13.125 8.85156 12.6523 8.44531 12.2617C8.03906 11.8711 7.54297 11.6758 6.95703 11.6758H5.10547V16.832C5.10547 17.1445 5.20312 17.3789 5.39844 17.5352C5.60156 17.6914 5.83594 17.7969 6.10156 17.8516C6.36719 17.8984 6.70312 17.9375 7.10938 17.9688C7.28125 17.9844 7.39453 18.0195 7.44922 18.0742C7.50391 18.1211 7.53125 18.2305 7.53125 18.4023C7.53125 18.5195 7.49219 18.6484 7.41406 18.7891C7.34375 18.9297 7.25 19 7.13281 19H0.582031ZM6.99219 10.668C8.07031 10.668 8.92578 10.3945 9.55859 9.84766C10.1914 9.30078 10.5078 8.37109 10.5078 7.05859C10.5078 5.76172 10.1836 4.82812 9.53516 4.25781C8.89453 3.67969 7.98047 3.39062 6.79297 3.39062H5.11719V10.668H6.99219ZM17.7383 16.1523C17.7383 15.1914 18.082 14.4219 18.7695 13.8438C19.457 13.2656 20.3008 12.8438 21.3008 12.5781C22.3086 12.3125 23.4609 12.1133 24.7578 11.9805V10.1406C24.7578 9.55469 24.5781 9.08594 24.2188 8.73438C23.8672 8.375 23.3164 8.19531 22.5664 8.19531C22.0117 8.19531 21.6094 8.26172 21.3594 8.39453L19.8008 11.3242C19.3008 11.3242 18.9023 11.2031 18.6055 10.9609C18.3164 10.7188 18.1719 10.3555 18.1719 9.87109C18.1719 9.35547 18.4023 8.88672 18.8633 8.46484C19.3242 8.04297 19.9297 7.71484 20.6797 7.48047C21.4375 7.23828 22.2383 7.11719 23.082 7.11719C24.707 7.11719 25.8516 7.45312 26.5156 8.125C27.1797 8.78906 27.5117 9.66016 27.5117 10.7383V16.6562C27.5117 16.9688 27.5547 17.2461 27.6406 17.4883C27.7266 17.7305 27.832 17.8516 27.957 17.8516C28.1523 17.8516 28.3984 17.8125 28.6953 17.7344C28.8203 17.7109 28.9219 17.7656 29 17.8984C29.0781 18.0234 29.1172 18.1562 29.1172 18.2969C29.1172 18.3906 29.0938 18.457 29.0469 18.4961C28.8125 18.668 28.4609 18.8359 27.9922 19C27.5234 19.1641 27.0391 19.2461 26.5391 19.2461C25.9922 19.2461 25.5938 19.1367 25.3438 18.918C25.0938 18.6992 24.9688 18.3281 24.9688 17.8047V17.7109C24.4609 18.2422 23.8906 18.6328 23.2578 18.8828C22.6328 19.1328 21.9102 19.2578 21.0898 19.2578C20.5664 19.2578 20.0469 19.1523 19.5312 18.9414C19.0234 18.7227 18.5977 18.3789 18.2539 17.9102C17.9102 17.4414 17.7383 16.8555 17.7383 16.1523ZM20.6914 16.082C20.6914 16.3945 20.7539 16.6836 20.8789 16.9492C21.0117 17.2148 21.2031 17.4297 21.4531 17.5938C21.7031 17.75 21.9922 17.8281 22.3203 17.8281C22.8672 17.8281 23.3477 17.7344 23.7617 17.5469C24.1758 17.3516 24.5039 17.1211 24.7461 16.8555V12.8477C23.8398 12.9805 23.1055 13.1445 22.543 13.3398C21.9883 13.5352 21.5391 13.8516 21.1953 14.2891C20.8594 14.7188 20.6914 15.3164 20.6914 16.082ZM32.4336 24.2617C32.0664 24.2617 31.7148 24.1875 31.3789 24.0391C31.043 23.8984 30.7695 23.7031 30.5586 23.4531C30.3477 23.2031 30.2422 22.9297 30.2422 22.6328C30.2422 22.3203 30.2969 22.0547 30.4062 21.8359C30.5156 21.625 30.6562 21.4648 30.8281 21.3555C31 21.2539 31.1719 21.2031 31.3438 21.2031L32.75 22.6562C33.0391 22.625 33.3125 22.5039 33.5703 22.293C33.8281 22.0898 34.0938 21.7539 34.3672 21.2852C34.6484 20.8164 34.9531 20.1797 35.2812 19.375L31.0391 9.28516C30.8281 8.91797 30.6133 8.66406 30.3945 8.52344C30.1836 8.38281 29.9219 8.29688 29.6094 8.26562C29.4375 8.25 29.3242 8.21875 29.2695 8.17188C29.2148 8.11719 29.1875 8.00391 29.1875 7.83203C29.1875 7.72266 29.2227 7.61719 29.293 7.51562C29.3633 7.40625 29.457 7.35156 29.5742 7.35156H35.0117C35.1367 7.35156 35.2344 7.40625 35.3047 7.51562C35.375 7.61719 35.4102 7.72266 35.4102 7.83203C35.4102 7.96484 35.3828 8.06641 35.3281 8.13672C35.2734 8.20703 35.1719 8.25 35.0234 8.26562C34.6328 8.30469 34.3281 8.36328 34.1094 8.44141C33.8906 8.51172 33.7812 8.64844 33.7812 8.85156L36.582 16.3398L39.1133 8.86328C39.1133 8.72266 39.0469 8.61328 38.9141 8.53516C38.7812 8.44922 38.6367 8.39453 38.4805 8.37109C38.3242 8.33984 38.0859 8.30469 37.7656 8.26562C37.6172 8.25 37.5156 8.20703 37.4609 8.13672C37.4062 8.06641 37.3789 7.96484 37.3789 7.83203C37.3789 7.72266 37.4141 7.61719 37.4844 7.51562C37.5547 7.40625 37.6523 7.35156 37.7773 7.35156H41.7852C41.9023 7.35156 41.9961 7.40625 42.0664 7.51562C42.1445 7.625 42.1836 7.73047 42.1836 7.83203C42.1836 8.00391 42.1562 8.11719 42.1016 8.17188C42.0469 8.21875 41.9336 8.25 41.7617 8.26562C41.457 8.29688 41.2109 8.37891 41.0234 8.51172C40.8438 8.64453 40.6523 8.90234 40.4492 9.28516L36.9922 18.4609L36.875 18.7656C36.4375 19.8984 36.0352 20.832 35.668 21.5664C35.3086 22.3008 34.8555 22.9336 34.3086 23.4648C33.7695 23.9961 33.1445 24.2617 32.4336 24.2617ZM42.957 16.1523C42.957 15.1914 43.3008 14.4219 43.9883 13.8438C44.6758 13.2656 45.5195 12.8438 46.5195 12.5781C47.5273 12.3125 48.6797 12.1133 49.9766 11.9805V10.1406C49.9766 9.55469 49.7969 9.08594 49.4375 8.73438C49.0859 8.375 48.5352 8.19531 47.7852 8.19531C47.2305 8.19531 46.8281 8.26172 46.5781 8.39453L45.0195 11.3242C44.5195 11.3242 44.1211 11.2031 43.8242 10.9609C43.5352 10.7188 43.3906 10.3555 43.3906 9.87109C43.3906 9.35547 43.6211 8.88672 44.082 8.46484C44.543 8.04297 45.1484 7.71484 45.8984 7.48047C46.6562 7.23828 47.457 7.11719 48.3008 7.11719C49.9258 7.11719 51.0703 7.45312 51.7344 8.125C52.3984 8.78906 52.7305 9.66016 52.7305 10.7383V16.6562C52.7305 16.9688 52.7734 17.2461 52.8594 17.4883C52.9453 17.7305 53.0508 17.8516 53.1758 17.8516C53.3711 17.8516 53.6172 17.8125 53.9141 17.7344C54.0391 17.7109 54.1406 17.7656 54.2188 17.8984C54.2969 18.0234 54.3359 18.1562 54.3359 18.2969C54.3359 18.3906 54.3125 18.457 54.2656 18.4961C54.0312 18.668 53.6797 18.8359 53.2109 19C52.7422 19.1641 52.2578 19.2461 51.7578 19.2461C51.2109 19.2461 50.8125 19.1367 50.5625 18.918C50.3125 18.6992 50.1875 18.3281 50.1875 17.8047V17.7109C49.6797 18.2422 49.1094 18.6328 48.4766 18.8828C47.8516 19.1328 47.1289 19.2578 46.3086 19.2578C45.7852 19.2578 45.2656 19.1523 44.75 18.9414C44.2422 18.7227 43.8164 18.3789 43.4727 17.9102C43.1289 17.4414 42.957 16.8555 42.957 16.1523ZM45.9102 16.082C45.9102 16.3945 45.9727 16.6836 46.0977 16.9492C46.2305 17.2148 46.4219 17.4297 46.6719 17.5938C46.9219 17.75 47.2109 17.8281 47.5391 17.8281C48.0859 17.8281 48.5664 17.7344 48.9805 17.5469C49.3945 17.3516 49.7227 17.1211 49.9648 16.8555V12.8477C49.0586 12.9805 48.3242 13.1445 47.7617 13.3398C47.207 13.5352 46.7578 13.8516 46.4141 14.2891C46.0781 14.7188 45.9102 15.3164 45.9102 16.082ZM55.5547 19C55.4297 19 55.3281 18.9531 55.25 18.8594C55.1719 18.7578 55.1328 18.6445 55.1328 18.5195C55.1328 18.3867 55.1602 18.2852 55.2148 18.2148C55.2695 18.1445 55.3711 18.1016 55.5195 18.0859C55.8945 18.0469 56.2148 17.9727 56.4805 17.8633C56.7461 17.7539 56.8789 17.5898 56.8789 17.3711L56.8906 3.35547C56.8906 2.98828 56.8164 2.71094 56.668 2.52344C56.5195 2.32812 56.3438 2.19922 56.1406 2.13672C55.9453 2.06641 55.6953 2.01172 55.3906 1.97266C55.3438 1.96484 55.2734 1.95703 55.1797 1.94922C55.0938 1.93359 55.0234 1.91797 54.9688 1.90234C54.875 1.86328 54.8047 1.80859 54.7578 1.73828C54.7109 1.66797 54.6875 1.56641 54.6875 1.43359C54.6875 1.32422 54.7148 1.21484 54.7695 1.10547C54.8242 0.988281 54.8906 0.925781 54.9688 0.917969C56.0625 0.847656 57.375 0.800781 58.9062 0.777344H59.1758C59.2617 0.777344 59.3398 0.8125 59.4102 0.882812C59.4805 0.953125 59.5195 1.07422 59.5273 1.24609V16.9844C59.5273 17.2812 59.5977 17.5078 59.7383 17.6641C59.8867 17.8203 60.0547 17.9219 60.2422 17.9688C60.4375 18.0156 60.6758 18.0547 60.957 18.0859C61.1211 18.1016 61.2305 18.1367 61.2852 18.1914C61.3477 18.2461 61.3789 18.3477 61.3789 18.4961C61.3789 18.6289 61.3359 18.7461 61.25 18.8477C61.1719 18.9492 61.0664 19 60.9336 19H55.5547ZM69.5938 19C69.4766 19 69.3789 18.9297 69.3008 18.7891C69.2305 18.6484 69.1953 18.5195 69.1953 18.4023C69.1953 18.2695 69.2227 18.168 69.2773 18.0977C69.332 18.0273 69.4336 17.9844 69.582 17.9688C70.043 17.9297 70.4297 17.8555 70.7422 17.7461C71.0547 17.6289 71.2109 17.4531 71.2109 17.2188L71.2227 4.53906C71.2227 4.22656 71.1328 3.99219 70.9531 3.83594C70.7812 3.67969 70.5898 3.58203 70.3789 3.54297C70.168 3.49609 69.8672 3.44922 69.4766 3.40234C69.3047 3.38672 69.1914 3.35547 69.1367 3.30859C69.082 3.25391 69.0547 3.14062 69.0547 2.96875C69.0547 2.85156 69.0898 2.72266 69.1602 2.58203C69.2383 2.44141 69.3359 2.37109 69.4531 2.37109H72.3477C72.9023 2.37109 73.6406 2.34766 74.5625 2.30078C74.7266 2.29297 75.0195 2.28125 75.4414 2.26562C75.8711 2.25 76.2734 2.24219 76.6484 2.24219C77.75 2.24219 78.7383 2.40625 79.6133 2.73438C80.4961 3.0625 81.1992 3.59375 81.7227 4.32812C82.2539 5.0625 82.5195 6.00781 82.5195 7.16406C82.5195 8.21094 82.2656 9.13672 81.7578 9.94141C81.25 10.7461 80.5195 11.375 79.5664 11.8281C78.6211 12.2734 77.5039 12.4961 76.2148 12.4961H74.1406V16.832C74.1406 17.1367 74.2734 17.3711 74.5391 17.5352C74.8047 17.6914 75.0977 17.7969 75.418 17.8516C75.7461 17.8984 76.1484 17.9375 76.625 17.9688C76.7969 17.9844 76.9102 18.0195 76.9648 18.0742C77.0195 18.1211 77.0469 18.2305 77.0469 18.4023C77.0469 18.5195 77.0078 18.6484 76.9297 18.7891C76.8594 18.9297 76.7656 19 76.6484 19H69.5938ZM75.8984 11.4531C76.3594 11.4531 76.8516 11.3242 77.375 11.0664C77.8984 10.8008 78.3477 10.3672 78.7227 9.76562C79.1055 9.15625 79.2969 8.37109 79.2969 7.41016C79.2969 5.91016 78.9648 4.85156 78.3008 4.23438C77.6445 3.61719 76.7578 3.30859 75.6406 3.30859H74.1406V11.4531H75.8984ZM84.418 16.1523C84.418 15.1914 84.7617 14.4219 85.4492 13.8438C86.1367 13.2656 86.9805 12.8438 87.9805 12.5781C88.9883 12.3125 90.1406 12.1133 91.4375 11.9805V10.1406C91.4375 9.55469 91.2578 9.08594 90.8984 8.73438C90.5469 8.375 89.9961 8.19531 89.2461 8.19531C88.6914 8.19531 88.2891 8.26172 88.0391 8.39453L86.4805 11.3242C85.9805 11.3242 85.582 11.2031 85.2852 10.9609C84.9961 10.7188 84.8516 10.3555 84.8516 9.87109C84.8516 9.35547 85.082 8.88672 85.543 8.46484C86.0039 8.04297 86.6094 7.71484 87.3594 7.48047C88.1172 7.23828 88.918 7.11719 89.7617 7.11719C91.3867 7.11719 92.5312 7.45312 93.1953 8.125C93.8594 8.78906 94.1914 9.66016 94.1914 10.7383V16.6562C94.1914 16.9688 94.2344 17.2461 94.3203 17.4883C94.4062 17.7305 94.5117 17.8516 94.6367 17.8516C94.832 17.8516 95.0781 17.8125 95.375 17.7344C95.5 17.7109 95.6016 17.7656 95.6797 17.8984C95.7578 18.0234 95.7969 18.1562 95.7969 18.2969C95.7969 18.3906 95.7734 18.457 95.7266 18.4961C95.4922 18.668 95.1406 18.8359 94.6719 19C94.2031 19.1641 93.7188 19.2461 93.2188 19.2461C92.6719 19.2461 92.2734 19.1367 92.0234 18.918C91.7734 18.6992 91.6484 18.3281 91.6484 17.8047V17.7109C91.1406 18.2422 90.5703 18.6328 89.9375 18.8828C89.3125 19.1328 88.5898 19.2578 87.7695 19.2578C87.2461 19.2578 86.7266 19.1523 86.2109 18.9414C85.7031 18.7227 85.2773 18.3789 84.9336 17.9102C84.5898 17.4414 84.418 16.8555 84.418 16.1523ZM87.3711 16.082C87.3711 16.3945 87.4336 16.6836 87.5586 16.9492C87.6914 17.2148 87.8828 17.4297 88.1328 17.5938C88.3828 17.75 88.6719 17.8281 89 17.8281C89.5469 17.8281 90.0273 17.7344 90.4414 17.5469C90.8555 17.3516 91.1836 17.1211 91.4258 16.8555V12.8477C90.5195 12.9805 89.7852 13.1445 89.2227 13.3398C88.668 13.5352 88.2188 13.8516 87.875 14.2891C87.5391 14.7188 87.3711 15.3164 87.3711 16.082ZM97.4492 19C97.3242 19 97.2266 18.9492 97.1562 18.8477C97.0859 18.7383 97.0508 18.6289 97.0508 18.5195C97.0508 18.3867 97.0781 18.2852 97.1328 18.2148C97.1875 18.1445 97.2891 18.1016 97.4375 18.0859C98.3438 18 98.7969 17.7617 98.7969 17.3711V9.88281C98.7969 9.51562 98.7305 9.23438 98.5977 9.03906C98.4648 8.84375 98.3086 8.71484 98.1289 8.65234C97.9492 8.58984 97.7148 8.53516 97.4258 8.48828C97.3867 8.48047 97.3281 8.47266 97.25 8.46484C97.1719 8.44922 97.1055 8.43359 97.0508 8.41797C96.957 8.37891 96.8867 8.32422 96.8398 8.25391C96.793 8.18359 96.7695 8.08203 96.7695 7.94922C96.7695 7.83984 96.7969 7.73047 96.8516 7.62109C96.9062 7.50391 96.9727 7.44141 97.0508 7.43359C98.1914 7.37109 99.4219 7.33203 100.742 7.31641H101.012C101.09 7.31641 101.164 7.35156 101.234 7.42188C101.305 7.49219 101.348 7.61328 101.363 7.78516V9.66016C101.777 8.92578 102.266 8.32031 102.828 7.84375C103.398 7.35938 104.043 7.11719 104.762 7.11719C105.98 7.11719 106.59 7.72266 106.59 8.93359C106.59 9.23828 106.5 9.51562 106.32 9.76562C106.148 10.0078 105.938 10.1992 105.688 10.3398C105.445 10.4727 105.223 10.5391 105.02 10.5391L103.707 8.85156C103.301 8.85156 102.887 9.07031 102.465 9.50781C102.043 9.9375 101.719 10.4414 101.492 11.0195V16.9844C101.492 17.2812 101.594 17.5078 101.797 17.6641C102 17.8125 102.23 17.9102 102.488 17.957C102.754 18.0039 103.105 18.0469 103.543 18.0859C103.715 18.1016 103.828 18.1367 103.883 18.1914C103.938 18.2383 103.965 18.3477 103.965 18.5195C103.965 18.6289 103.93 18.7383 103.859 18.8477C103.789 18.9492 103.691 19 103.566 19H97.4492ZM107.656 19C107.531 19 107.434 18.9492 107.363 18.8477C107.293 18.7383 107.258 18.6289 107.258 18.5195C107.258 18.3867 107.285 18.2852 107.34 18.2148C107.395 18.1445 107.496 18.1016 107.645 18.0859C108.504 18 108.934 17.7617 108.934 17.3711V3.34375C108.934 2.97656 108.867 2.69922 108.734 2.51172C108.609 2.31641 108.453 2.1875 108.266 2.125C108.086 2.0625 107.855 2.01172 107.574 1.97266C107.348 1.93359 107.219 1.91016 107.188 1.90234C107.094 1.86328 107.023 1.80859 106.977 1.73828C106.93 1.66797 106.906 1.56641 106.906 1.43359C106.906 1.32422 106.93 1.21484 106.977 1.10547C107.031 0.988281 107.102 0.925781 107.188 0.917969C108.305 0.847656 109.578 0.800781 111.008 0.777344H111.242C111.328 0.777344 111.406 0.8125 111.477 0.882812C111.547 0.953125 111.586 1.07422 111.594 1.24609V13.4453L115.871 9.13281C115.973 9.05469 116.023 8.98047 116.023 8.91016C116.023 8.76172 115.863 8.64453 115.543 8.55859C115.23 8.46484 114.887 8.40625 114.512 8.38281C114.371 8.36719 114.273 8.31641 114.219 8.23047C114.172 8.13672 114.148 8.01953 114.148 7.87891C114.148 7.76953 114.184 7.65625 114.254 7.53906C114.332 7.41406 114.43 7.35156 114.547 7.35156H119.516C119.641 7.35156 119.738 7.41406 119.809 7.53906C119.879 7.65625 119.914 7.76953 119.914 7.87891C119.914 8.02734 119.879 8.14844 119.809 8.24219C119.746 8.33594 119.652 8.38281 119.527 8.38281C119.176 8.38281 118.805 8.47656 118.414 8.66406C118.031 8.84375 117.672 9.06641 117.336 9.33203L115.203 11.5117C115.688 12.4102 116.246 13.3906 116.879 14.4531C117.512 15.5156 118.105 16.418 118.66 17.1602C118.855 17.4336 119.062 17.6562 119.281 17.8281C119.508 17.9922 119.734 18.0781 119.961 18.0859C120.102 18.0938 120.199 18.1289 120.254 18.1914C120.316 18.2461 120.348 18.3555 120.348 18.5195C120.348 18.6289 120.312 18.7383 120.242 18.8477C120.172 18.9492 120.074 19 119.949 19H116.328C116.062 18.6328 115.746 18.1172 115.379 17.4531C115.02 16.7812 114.504 15.7969 113.832 14.5C113.707 14.25 113.594 14.0312 113.492 13.8438C113.398 13.6562 113.316 13.4922 113.246 13.3516L111.594 15.0039V16.9844C111.594 17.2812 111.652 17.5078 111.77 17.6641C111.895 17.8203 112.039 17.9258 112.203 17.9805C112.367 18.0273 112.582 18.0625 112.848 18.0859C113.02 18.1016 113.133 18.1367 113.188 18.1914C113.242 18.2383 113.27 18.3477 113.27 18.5195C113.27 18.6289 113.234 18.7383 113.164 18.8477C113.094 18.9492 112.996 19 112.871 19H107.656Z" fill="#081F32"/>
</svg>
